<?xml version="1.0" encoding="utf-8"?>
<!-- Generator: Adobe Illustrator 24.0.1, SVG Export Plug-In . SVG Version: 6.00 Build 0)  -->
<svg version="1.1" id="Calque_1" xmlns="http://www.w3.org/2000/svg" xmlns:xlink="http://www.w3.org/1999/xlink" x="0px" y="0px"
	 viewBox="0 0 300 300" style="enable-background:new 0 0 300 300;" xml:space="preserve">
<style type="text/css">
	.st0{fill:#FFFFFF;}
	.st1{display:none;fill:#FFFFFF;}
</style>
<g>
	<g>
		<g>
			<path class="st0" d="M21.7,236.4c-0.1,0.2-0.4,0.5-0.7,0.9c-0.4,0.5-0.6,0.7-0.7,0.7c-0.2,0-0.9-0.3-2-1c-0.2,0.1-0.5,0.4-1.1,1
				c-0.5-0.2-1.1-0.5-2-1.1c0.1-0.2,0.6-0.7,1.4-1.6c0.9,0.7,1.5,1,1.8,1c0,0,0.4-0.3,1.3-1L21.7,236.4z M26.1,247.2h-2.5
				c-0.5,0-0.9-0.3-1.2-0.9c-0.2-0.5-0.3-1-0.5-1.5c-0.1,0.1-0.4,0.4-0.7,1.1c-0.3,0.6-0.6,0.9-0.8,0.8l-4.4-0.8
				c0.4-1.4,0.7-2.4,1-2.9c0.3-0.5,0.7-1,1.4-1.4c0.9-0.5,1.7-1,2.6-1.5c-0.1-0.3-0.2-0.5-0.2-0.7l1.4-2.5l0.1,0.1
				c0.1,0.6,0.4,1.8,0.7,3.6c0.3,1.6,0.5,2.7,0.7,3.4c0.1,0.4,0.5,0.5,1.1,0.5h1.2V247.2z M21.6,243.6l-0.4-2.1
				c-0.2,0.3-0.6,0.7-1.1,1.2c-0.3,0.1-0.6,0.3-0.9,0.6L21.6,243.6z"/>
			<path class="st0" d="M31.3,244.6v2.7H25v-2.7H31.3z"/>
			<path class="st0" d="M36.8,244.6v2.7h-6.3v-2.7H36.8z"/>
			<path class="st0" d="M42.3,244.6v2.7H36v-2.7H42.3z"/>
			<path class="st0" d="M47.2,247.2h-2.4c-0.2,0-0.3-0.2-0.4-0.7c0-0.3,0-0.6,0-0.9l-0.9,1.6h-1.7v-2.7h2.5l-1-6.5l1.9-2.6l0.1,0.1
				c0.3,1.1,0.5,2.5,0.6,4.3c0.1,2.3,0.3,3.8,0.3,4.3c0,0.2,0.2,0.4,0.4,0.4c0,0,0.3,0,0.6,0V247.2z"/>
			<path class="st0" d="M54.5,244.4c0,0.3-0.2,0.8-0.6,1.5c-0.3,0.5-0.6,0.9-0.9,1.4c0-0.2-1.3-0.7-4-1.7c-0.1,0.1-0.3,0.4-0.6,0.9
				c-0.3,0.5-0.5,0.8-0.7,0.8h-1.6v-2.7h1.8c0.1-0.1,0.4-0.6,0.8-1.6c0.3-0.6,0.8-1.2,1.7-1.9c0.9-0.6,1.7-1,2.3-1
				c0.3,0,0.6,0.1,0.7,0.4c0.1,0.3,0.1,0.5,0.2,0.8c0.2,0.5,0.3,1,0.5,1.5C54.4,243.5,54.5,244,54.5,244.4z M52.1,243.7
				c-0.1-0.3-0.2-0.7-0.5-1.2l-0.2,0c-0.3,0-0.7,0.1-1.1,0.4L52.1,243.7z"/>
			<path class="st0" d="M61.3,247.2h-3.7l-0.8-9.5c0-0.1,0.2-0.5,0.7-1.1c0.5-0.6,0.8-0.9,0.9-1.1c0.1,1.5,0.2,2.9,0.3,4.4
				c0.1,2,0.3,3.4,0.5,4.2c0,0.3,0.3,0.4,0.8,0.4h1.3V247.2z"/>
			<path class="st0" d="M71.8,245.7c-0.1,0.3-0.2,0.5-0.3,0.8c-0.1,0.3-0.2,0.5-0.3,0.8h-3.7c-0.1-0.1-0.1-0.3-0.2-0.4
				c0,0-0.1,0.1-0.2,0.2c-0.1,0.1-0.2,0.1-0.2,0.2h-3.5c0-0.2-0.1-0.4-0.2-0.7c-0.1,0-0.1,0.1-0.2,0.1c-0.1,0.1-0.1,0.1-0.2,0.2
				c-0.1,0.1-0.2,0.1-0.3,0.2c-0.1,0.1-0.2,0.1-0.2,0.1h-2.1v-2.7h2.7c0.2-0.4,0.3-0.8,0.3-1.3c0-0.2,0.2-0.6,0.7-1.1
				c0.5-0.5,0.8-0.9,1.1-1c0,0.2,0,0.4,0,0.6c0,0.5-0.2,1.4-0.7,2.7h2.9c0-0.2,0.1-0.5,0.2-1c0.6-1.2,1.3-1.9,1.9-2.1v0.2
				c0,0.2-0.1,0.7-0.4,1.4c-0.2,0.7-0.4,1.2-0.4,1.5c0,0,0,0.1,0.1,0.1h1.7c0.1,0,0.1-0.1,0.1-0.2c0-0.1,0-0.2,0-0.4
				c0-0.2,0-0.3,0-0.4c0-0.3,0.2-0.7,0.7-1.4c0.4-0.5,0.8-0.9,1.1-1.1v2.9C72.1,244.5,72,245.1,71.8,245.7z M70.4,239.5
				c-0.4,0.5-0.7,0.7-0.8,0.7c-0.1,0-0.8-0.4-2-1.1c-0.1,0.1-0.3,0.2-0.4,0.4c-0.2,0.2-0.4,0.4-0.7,0.6c-0.4,0-1.1-0.4-2.1-1.1
				c0.1-0.2,0.3-0.5,0.7-0.9c0.4-0.4,0.6-0.7,0.8-0.7c1,0.7,1.6,1,1.8,1c0.1,0,0.3-0.2,0.6-0.5c0.3-0.2,0.5-0.4,0.7-0.6l2.1,1.1
				C71,238.7,70.8,239,70.4,239.5z M68.3,237.2c-0.4,0.3-0.6,0.5-0.7,0.5c-0.1,0-0.3-0.2-0.8-0.5c-0.4-0.3-0.6-0.5-0.6-0.6
				c0-0.1,0.2-0.3,0.6-0.7c0.4-0.4,0.7-0.6,0.8-0.6c0.1,0,0.6,0.4,1.5,1.3C68.9,236.7,68.7,236.9,68.3,237.2z"/>
			<path class="st0" d="M85.6,236.4c-0.1,0.2-0.4,0.5-0.7,0.9c-0.4,0.5-0.6,0.7-0.7,0.7c-0.2,0-0.9-0.3-2-1c-0.2,0.1-0.5,0.4-1.1,1
				c-0.5-0.2-1.1-0.5-2-1.1c0.1-0.2,0.6-0.7,1.4-1.6c0.9,0.7,1.5,1,1.8,1c0,0,0.4-0.3,1.3-1L85.6,236.4z M90,247.2h-2.5
				c-0.5,0-0.9-0.3-1.2-0.9c-0.2-0.5-0.3-1-0.5-1.5c-0.1,0.1-0.4,0.4-0.7,1.1c-0.3,0.6-0.6,0.9-0.8,0.8l-4.4-0.8
				c0.4-1.4,0.7-2.4,1-2.9c0.3-0.5,0.7-1,1.4-1.4c0.9-0.5,1.7-1,2.6-1.5c-0.1-0.3-0.2-0.5-0.2-0.7l1.4-2.5l0.1,0.1
				c0.1,0.6,0.4,1.8,0.7,3.6c0.3,1.6,0.5,2.7,0.7,3.4c0.1,0.4,0.5,0.5,1.1,0.5H90V247.2z M85.5,243.6l-0.4-2.1
				c-0.2,0.3-0.6,0.7-1.1,1.2c-0.3,0.1-0.6,0.3-0.9,0.6L85.5,243.6z"/>
			<path class="st0" d="M95.2,244.6v2.7h-6.3v-2.7H95.2z"/>
			<path class="st0" d="M100.7,244.6v2.7h-6.3v-2.7H100.7z"/>
			<path class="st0" d="M106.2,244.6v2.7h-6.3v-2.7H106.2z"/>
			<path class="st0" d="M113.1,243.5c0,0.7-0.2,1.9-0.5,3.8h-7v-2.7h5.8c-0.3-0.9-0.8-1.8-1.5-2.7l1.4-2.4
				C112.5,241,113.1,242.3,113.1,243.5z M105.8,250.5c0.4-0.6,0.8-1.1,1.3-1.6c0.9,0.7,1.5,1,1.7,1c0.1,0,0.3-0.2,0.6-0.5
				c0.3-0.3,0.5-0.5,0.6-0.6l1.9,1.2c-0.5,0.8-1,1.3-1.4,1.7l-1.8-1.1c-0.2,0.2-0.6,0.5-1.1,1C106.8,251.2,106.2,250.9,105.8,250.5z
				"/>
			<path class="st0" d="M120.1,245.2c0,1.1-0.3,2.3-1,3.6c-0.8,1.5-1.6,2.3-2.6,2.3c-0.5,0-1.4-0.3-2.7-0.8c-1.4-0.5-2.1-1-2.1-1.3
				c0-0.1,0-0.2,0.1-0.3h0.3c1.1,0.5,1.8,0.7,2.3,0.7c0.6,0,1.5-0.5,2.7-1.5c1.1-1,1.7-1.7,1.7-2.3c0-0.3-0.7-1.2-2.1-2.6
				c0.2-0.6,0.5-1.4,1-2.5c0.8,0.8,1.4,1.4,1.8,2C119.8,243.4,120.1,244.3,120.1,245.2z"/>
			<path class="st0" d="M126.4,247.2h-3.7l-0.8-9.5c0-0.1,0.2-0.5,0.7-1.1c0.5-0.6,0.8-0.9,0.9-1.1c0.1,1.5,0.2,2.9,0.3,4.4
				c0.1,2,0.3,3.4,0.5,4.2c0,0.3,0.3,0.4,0.8,0.4h1.3V247.2z"/>
			<path class="st0" d="M133.8,247.2h-2.1c-0.7,0-1.2-0.5-1.6-1.6l-0.9,1.6h-4v-2.7h4.6c0.1,0,0.1-0.2,0.1-0.7c0-0.8,0-1.3,0.1-1.5
				c0.2-0.3,0.4-0.7,0.8-1.1c0.3-0.3,0.6-0.6,0.9-0.9v1.6c0,0.2,0,0.4-0.1,0.7c-0.1,0.3-0.1,0.6-0.1,0.7c0,0.7,0.4,1.1,1.1,1.1h1.2
				V247.2z M131.3,251.3c-0.2,0.2-0.5,0.5-0.9,0.8c-0.5,0.4-0.8,0.6-1,0.6c-0.1,0-0.5-0.2-1-0.7c-0.5-0.4-0.8-0.7-0.8-0.9
				c0-0.1,0.3-0.4,0.8-0.9c0.5-0.5,0.9-0.8,1-0.8c0.1,0,0.5,0.3,1.1,0.8C131,250.9,131.3,251.2,131.3,251.3z"/>
			<path class="st0" d="M146.5,243.7l-1.6,2.3c-2.4-0.2-3.7-0.3-3.9-0.3c-0.5,0-1.3,0.3-2.2,0.8c-0.9,0.5-1.5,0.8-1.8,0.8h-4.1v-2.7
				h4.1c1.1,0,1.8-0.1,2.3-0.4c-0.5-0.3-1.1-0.5-1.6-0.8c-0.5-0.3-1.1-0.4-1.7-0.4c-0.4,0-0.6,0.1-0.8,0.2c-0.3,0.2-0.6,0.3-0.7,0.4
				c0.7-1.1,1.2-1.8,1.4-2c0.6-0.7,1.3-1.1,2-1.1c0.6,0,1.9,0.5,3.9,1.5C143.8,243,145.4,243.6,146.5,243.7z M140.2,237.6
				c0,0.1-0.3,0.4-0.8,0.8c-0.5,0.4-0.9,0.6-1,0.6c-0.1,0-0.4-0.2-0.9-0.6s-0.8-0.7-0.8-0.8c0-0.1,0.3-0.4,0.8-0.9
				c0.5-0.5,0.8-0.7,0.9-0.8C139.6,236.9,140.2,237.4,140.2,237.6z"/>
			<path class="st0" d="M151,243.3c0,1.6-0.5,3-1.4,4.1l-1.1-7.8c0.3-0.9,0.9-1.9,1.8-3.2C150.8,239.6,151,241.9,151,243.3z
				 M152,249.2c-0.1,0.2-0.2,0.4-0.5,0.7c-0.8,0-1.7,0.3-2.6,1c0.1-0.2,0.2-0.4,0.4-0.5c0.2-0.2,0.4-0.3,0.6-0.4
				c-0.2,0-0.6-0.2-1.1-0.4c0-0.5,0.2-0.9,0.5-1.3c0.4-0.4,0.8-0.6,1.2-0.6c0.1,0,0.3,0,0.4,0.1c0.2,0.2,0.2,0.3,0.2,0.4
				c0,0.1-0.1,0.2-0.2,0.3c-0.2,0.2-0.2,0.3-0.3,0.3l-0.7-0.4c-0.2,0-0.4,0.1-0.7,0.4c0.2,0.3,0.6,0.4,1.2,0.5
				C151.1,249.2,151.6,249.2,152,249.2z"/>
			<path class="st0" d="M165.5,236.4c-0.1,0.2-0.4,0.5-0.7,0.9c-0.4,0.5-0.6,0.7-0.7,0.7c-0.2,0-0.9-0.3-2-1c-0.2,0.1-0.5,0.4-1.1,1
				c-0.5-0.2-1.1-0.5-2-1.1c0.1-0.2,0.6-0.7,1.4-1.6c0.9,0.7,1.5,1,1.8,1c0,0,0.4-0.3,1.3-1L165.5,236.4z M169.8,247.2h-2.5
				c-0.5,0-0.9-0.3-1.2-0.9c-0.2-0.5-0.3-1-0.5-1.5c-0.1,0.1-0.4,0.4-0.7,1.1c-0.3,0.6-0.6,0.9-0.8,0.8l-4.4-0.8
				c0.4-1.4,0.7-2.4,1-2.9c0.3-0.5,0.7-1,1.4-1.4c0.9-0.5,1.7-1,2.6-1.5c-0.1-0.3-0.2-0.5-0.2-0.7l1.4-2.5l0.1,0.1
				c0.1,0.6,0.4,1.8,0.7,3.6c0.3,1.6,0.5,2.7,0.7,3.4c0.1,0.4,0.5,0.5,1.1,0.5h1.2V247.2z M165.4,243.6l-0.4-2.1
				c-0.2,0.3-0.6,0.7-1.1,1.2c-0.3,0.1-0.6,0.3-0.9,0.6L165.4,243.6z"/>
			<path class="st0" d="M175.1,244.6v2.7h-6.3v-2.7H175.1z"/>
			<path class="st0" d="M180.5,244.6v2.7h-6.3v-2.7H180.5z"/>
			<path class="st0" d="M186,244.6v2.7h-6.3v-2.7H186z"/>
			<path class="st0" d="M193.3,247.2h-1.6c-0.9,0-1.4-0.5-1.7-1.5c-0.1,0.2-0.4,0.7-0.9,1.5h-3.8v-2.7h4.3c0.1-0.2,0.2-0.5,0.2-0.9
				c0,0.9,0,0.6,0-0.9c0-0.3,0.2-0.7,0.7-1.2c0.4-0.4,0.7-0.7,1.1-1.1v1.3c0,0.2,0,0.5-0.1,0.9c-0.1,0.4-0.1,0.7-0.1,0.9
				c0,0.7,0.4,1.1,1.1,1.1h0.7V247.2z M192.3,249.8c-0.2,0.3-0.5,0.6-0.7,0.9c-0.4,0.5-0.6,0.7-0.7,0.7c-0.1,0-0.8-0.4-1.8-1.1
				c-0.2,0.2-0.6,0.5-1,1c-0.6-0.2-1.3-0.6-1.9-1.1c0.1-0.2,0.3-0.4,0.6-0.9c0.3-0.3,0.5-0.5,0.7-0.8c0.5,0.4,1,0.7,1.7,1.1l1.1-1.1
				L192.3,249.8z"/>
			<path class="st0" d="M200.3,247.2h-1.8c-0.6,0-1.1-0.5-1.5-1.6l-0.9,1.6h-3.8v-2.7h4.3c0.1-0.2,0.1-0.6,0.1-1.1
				c0-0.5,0-0.8,0.2-1.1c0.1-0.3,0.4-0.7,0.8-1.1c0.3-0.3,0.6-0.6,1-1v1.1c0,0.2,0,0.6-0.1,1c-0.1,0.5-0.1,0.8-0.1,1.1
				c0,0.7,0.4,1,1.3,1h0.6V247.2z M198.7,237.4c0,0.1-0.3,0.5-0.7,1c-0.5,0.5-0.8,0.8-0.9,0.8c-0.5-0.3-1.3-0.6-2.3-1.1
				c0.3-0.4,0.9-1.1,1.8-1.9C197,236.7,197.7,237,198.7,237.4z"/>
			<path class="st0" d="M212.8,243.7l-0.9,3.6h-12.3v-2.7h1.5c0.5,0,0.8-0.2,0.8-0.6c0-0.4-0.1-1.3-0.3-2.8
				c-0.2-1.5-0.3-2.4-0.4-2.6c0-0.1-0.1-0.2-0.3-0.4c-0.1-0.1-0.2-0.2-0.2-0.5c0-0.3,0.2-0.7,0.6-1.2c0.3-0.5,0.7-0.8,1-1.1
				c0.2,1,1.1,1.8,2.7,2.5c-0.2,0.4-0.4,0.9-0.6,1.3c-0.3,0.5-0.6,0.8-0.9,0.9l-0.1,0.1c0,0.1,0,0.3,0.1,0.6c0,0.2,0.1,0.4,0.1,0.5
				c0,0.4-0.2,1.2-0.5,2.5c0.6-0.4,1.8-1,3.4-1.8c1.8-0.8,2.9-1.2,3.5-1.2c0.5,0,1.2,0.4,1.9,1.1
				C212.3,242.5,212.7,243.1,212.8,243.7z M210.5,244.5c-0.1-0.4-0.4-0.7-0.9-1.1c-0.5-0.4-0.9-0.6-1.3-0.6c-1.3,0-2.7,0.6-4.3,1.7
				H210.5z"/>
			<path class="st0" d="M220.7,244.5c0,1.4-0.3,2.8-1,4.2c-0.8,1.7-1.9,2.6-3.1,2.6c-2.5,0-4.1-0.3-4.9-0.9v-0.2
				c0.4-0.1,0.9-0.2,1.6-0.2c0.8,0,1.3-0.1,1.7-0.2c0.7-0.2,1.6-0.7,2.6-1.5c1-0.8,1.6-1.6,1.9-2.2c0.1-0.3,0.2-0.5,0.2-0.7
				c0-0.1,0-0.2-0.1-0.3c-0.3,0.7-0.6,1.1-0.7,1.3c-0.3,0.3-0.7,0.5-1.4,0.5c-1.1,0-1.6-0.7-1.6-2.1c0-0.8,0.3-1.7,0.9-2.6
				c0.6-1.1,1.3-1.7,2-1.9c0.7,0.2,1.2,0.8,1.6,1.7C220.6,242.9,220.7,243.7,220.7,244.5z M218.7,244.2L218.7,244.2
				c0-0.3-0.1-0.5-0.2-0.8c-0.2-0.2-0.4-0.4-0.6-0.4c-0.2,0-0.4,0.1-0.6,0.3c-0.2,0.2-0.3,0.4-0.4,0.6c0.4,0.3,0.8,0.5,1.1,0.5
				C218,244.4,218.3,244.3,218.7,244.2z"/>
			<path class="st0" d="M234.3,236.4c-0.1,0.2-0.4,0.5-0.7,0.9c-0.4,0.5-0.6,0.7-0.7,0.7c-0.2,0-0.9-0.3-2-1c-0.2,0.1-0.5,0.4-1.1,1
				c-0.5-0.2-1.1-0.5-2-1.1c0.1-0.2,0.6-0.7,1.4-1.6c0.9,0.7,1.5,1,1.8,1c0,0,0.4-0.3,1.3-1L234.3,236.4z M238.6,247.2h-2.5
				c-0.5,0-0.9-0.3-1.2-0.9c-0.2-0.5-0.3-1-0.5-1.5c-0.1,0.1-0.4,0.4-0.7,1.1c-0.3,0.6-0.6,0.9-0.8,0.8l-4.4-0.8
				c0.4-1.4,0.7-2.4,1-2.9c0.3-0.5,0.7-1,1.4-1.4c0.9-0.5,1.7-1,2.6-1.5c-0.1-0.3-0.2-0.5-0.2-0.7l1.4-2.5l0.1,0.1
				c0.1,0.6,0.4,1.8,0.7,3.6c0.3,1.6,0.5,2.7,0.7,3.4c0.1,0.4,0.5,0.5,1.1,0.5h1.2V247.2z M234.2,243.6l-0.4-2.1
				c-0.2,0.3-0.6,0.7-1.1,1.2c-0.3,0.1-0.6,0.3-0.9,0.6L234.2,243.6z"/>
			<path class="st0" d="M243.8,244.6v2.7h-6.3v-2.7H243.8z"/>
			<path class="st0" d="M249.3,244.6v2.7H243v-2.7H249.3z"/>
			<path class="st0" d="M254.8,244.6v2.7h-6.3v-2.7H254.8z"/>
			<path class="st0" d="M262.1,247.2h-1.6c-0.9,0-1.4-0.5-1.7-1.5c-0.1,0.2-0.4,0.7-0.9,1.5h-3.8v-2.7h4.3c0.1-0.2,0.2-0.5,0.2-0.9
				c0,0.9,0,0.6,0-0.9c0-0.3,0.2-0.7,0.7-1.2c0.4-0.4,0.7-0.7,1.1-1.1v1.3c0,0.2,0,0.5-0.1,0.9c-0.1,0.4-0.1,0.7-0.1,0.9
				c0,0.7,0.4,1.1,1.1,1.1h0.7V247.2z M261.1,249.8c-0.2,0.3-0.5,0.6-0.7,0.9c-0.4,0.5-0.6,0.7-0.7,0.7c-0.1,0-0.8-0.4-1.8-1.1
				c-0.2,0.2-0.6,0.5-1,1c-0.6-0.2-1.3-0.6-1.9-1.1c0.1-0.2,0.3-0.4,0.6-0.9c0.3-0.3,0.5-0.5,0.7-0.8c0.5,0.4,1,0.7,1.7,1.1l1.1-1.1
				L261.1,249.8z"/>
			<path class="st0" d="M269.3,244.4c0,0.3-0.2,0.8-0.6,1.5c-0.3,0.5-0.6,0.9-0.9,1.4c0-0.2-1.3-0.7-4-1.7c-0.1,0.1-0.3,0.4-0.6,0.9
				s-0.5,0.8-0.7,0.8H261v-2.7h1.8c0.1-0.1,0.4-0.6,0.8-1.6c0.3-0.6,0.8-1.2,1.7-1.9c0.9-0.6,1.7-1,2.3-1c0.3,0,0.6,0.1,0.7,0.4
				c0.1,0.3,0.1,0.5,0.2,0.8c0.2,0.5,0.3,1,0.5,1.5C269.2,243.5,269.3,244,269.3,244.4z M266.8,243.7c-0.1-0.3-0.2-0.7-0.5-1.2
				l-0.2,0c-0.3,0-0.7,0.1-1.1,0.4L266.8,243.7z"/>
			<path class="st0" d="M278.8,247.2h-1.8c-0.4,0.9-1,1.8-1.7,2.6c-0.9,0.9-1.7,1.4-2.6,1.4c-0.7,0-1.5-0.2-2.3-0.5
				c-0.9-0.4-1.6-0.8-2-1.2v-0.2c0.1,0,0.1-0.1,0.2-0.1c0.2,0,0.6,0.1,1.1,0.2s0.8,0.2,1,0.2c0.7,0,1.5-0.3,2.5-0.8
				c0.8-0.4,1.6-1,2.1-1.5c-1.3-0.2-2-0.4-2.1-0.4c-0.8-0.3-1.2-0.8-1.2-1.5c0-0.8,0.3-1.7,1-3c0.7-1.3,1.4-2,2.1-2
				c1.1,0,1.9,1.4,2.3,4.2h1.4V247.2z M275.4,244.4c-0.3-0.6-0.4-0.8-0.4-0.9c-0.2-0.4-0.5-0.6-0.7-0.6c-0.1,0-0.3,0.1-0.5,0.3
				c-0.2,0.2-0.3,0.4-0.3,0.5c0,0,0,0.1,0,0.1c0.3,0.5,0.8,0.7,1.5,0.7C275,244.5,275.2,244.5,275.4,244.4z"/>
			<path class="st0" d="M285.4,243.5c0,0.7-0.2,1.9-0.5,3.8h-7v-2.7h5.8c-0.3-0.9-0.8-1.8-1.5-2.7l1.4-2.4
				C284.8,241,285.4,242.3,285.4,243.5z M278.1,250.5c0.4-0.6,0.8-1.1,1.3-1.6c0.9,0.7,1.5,1,1.7,1c0.1,0,0.3-0.2,0.6-0.5
				c0.3-0.3,0.5-0.5,0.6-0.6l1.9,1.2c-0.5,0.8-1,1.3-1.4,1.7l-1.8-1.1c-0.2,0.2-0.6,0.5-1.1,1C279.1,251.2,278.5,250.9,278.1,250.5z
				"/>
		</g>
	</g>
	<g>
		<path class="st0" d="M72.5,155.8c-0.8-2.1-1.8-4-3.1-5.8c-1.3-1.8-2.7-3.4-4.3-4.9c-1.6-1.5-3.3-2.7-5.2-3.8
			c-0.6-0.2-1.1-0.1-1.4,0.2c-0.3,0.3-0.5,0.7-0.8,1.1c-0.2,0.2-0.4,0.5-0.7,0.9c-0.3,0.5-0.7,1-1.2,1.6c-0.5,0.6-1,1.3-1.5,2
			c-0.5,0.7-1,1.4-1.4,2c-0.4,0.6-0.8,1.2-1.2,1.6c-0.4,0.4-0.6,0.8-0.8,0.9c-0.2,0.3-0.6,0.7-1.1,1.3c-0.5,0.6-1.1,1.2-1.7,1.9
			c-0.6,0.7-1.2,1.3-1.8,1.9c-0.6,0.6-1,1-1.2,1.3c-0.1,0.2-0.1,0.4-0.2,0.6c-0.1,0.2,0,0.4,0.1,0.5c2.4,2.1,4.6,4.4,6.5,6.7
			c1.9,2.3,3.4,4.7,4.4,7.3c1,2.6,1.6,5.3,1.6,8.2c0,1.8-0.2,3.6-0.7,5.4c-0.4,0.7-1.5,1.6-4.3,1.9l-35.4,4.2
			c-0.8,0.1-1.9,0.5-2.5,1.4c-0.7,1.3-0.1,2.1,0.5,2.5c0.4,0.2,0.7,0.3,0.7,0.3l0,0l6.1,2.8l6.9,3.2c4.9,0.8,7.3,0.3,8.2,0
			c0.3-0.1,0.4-0.2,0.4-0.2l0,0l2.2-0.9c0,0,0,0,0,0c2.9-1,5.4-2.1,7.8-3.2c4.7-2.2,8.5-4.4,11.5-6.4c4.8-3.3,7.4-6.1,8.5-7.4
			c1-1.2,1.8-2.4,2.7-3.7c1.2-1.9,2.3-3.9,3.1-6.1c0.7-2.2,1.1-4.4,1.3-6.7c0.1-2.2,0-4.4-0.4-6.6C73.9,159.9,73.3,157.8,72.5,155.8
			z"/>
		<path class="st0" d="M271.5,48.2c-0.8-0.1-1.7,0.6-2.6,2c-0.9,1.4-1.5,2.4-1.9,3c-8.1,15.5-14.5,25-19.4,28.6
			c-0.7,0.7-1.8,1.6-3.4,2.8c-1.5,1.2-3.3,2.6-5.4,4.1c-2.1,1.5-4.3,3.2-6.7,5c-2.4,1.8-4.8,3.6-7.3,5.5c-2.5,1.9-4.8,3.8-7.1,5.7
			c-2.3,1.9-4.3,3.7-6,5.5c0,0,0,0,0,0.1c0,0,0,0,0-0.1c-0.5,0.4-1.1,0.9-1.7,1.4c-0.6,0.5-1.3,1.3-2.2,2.2c-0.8,0.9-1.7,2-2.7,3.3
			c-1,1.3-2.2,3-3.4,4.9l-0.5,1c-1,1.7-1.8,3.2-2.3,4.6c-0.7,1.7-0.6,3,0.4,3.9c1,0.9,2.4,1.3,4.3,1.3l4.4,0.3l18.7,0.5
			c-0.5,1-1.3,2-2.2,3c-1,1-2.1,2.1-3.4,3.4c-1.3,1.3-5.8,5.3-13.7,12.1c-5.8,4.5-10.6,7.6-14.3,9.4c-1.1,0.6-5.4,2.6-12.9,5.8
			c7.8-9.9,11.8-19.7,11.8-29.1c-0.2-6.5-3.7-9.7-10.5-9.5c-3.3,0.4-6.7,2.1-10.1,5.1c-3.5,3-6.5,6.4-9,10.4
			c-2.5,3.9-5.1,8.1-7.6,12.3c-2.5,4.3-4.2,6.8-5.1,7.5c-1.4-0.1-3.2-0.5-5.3-1c-2.2-0.6-4.1-1.3-5.7-2.1c-2.1-0.7-4.1,0.1-6,2.4
			c-1.9,2.3-3.7,4.9-5.4,7.9c-1.7,3-3.7,5-6.1,6.2c-2.4,1.2-5.3,1.8-8.8,1.8c-5.8,0-10.6-2.7-14.3-8.1c-2.6-3.8-3.9-9.5-3.9-17
			c0-0.5,0.2-3.7,0.7-9.4c0.4-5.7,1.7-16.3,3.6-31.7c2-15.4,3.1-25.9,3.3-31.4c0-0.7-0.2-1.2-0.7-1.3c-0.5-0.2-1,0.3-1.4,1.3
			c-4.4,11.1-7.3,18.9-8.7,23.3c-2.8,15.1-4.9,29-6.3,41.5c-1.4,12.5-2.1,22.3-2.2,29.3c0.1,0,0.1,0,0.2,0
			c-0.4,9.5,1.2,16.7,4.6,21.5c3.4,4.9,8.3,7.4,14.6,7.6c4.3,0,8.1-1,11.3-3.1c3.2-2.1,6.1-5.2,8.6-9.3c2.5-4.1,4.6-7.3,6.2-9.4
			c1.6-2.2,2.7-3.1,3.5-3c1.5,1.1,3.6,2.2,6.4,3.3c2.8,1.1,6.6,1.7,11.3,1.8c3.7,0,7.2-0.6,10.7-1.8c0.1,0,0.2,0,0.3,0
			c0.7,0,2.8-0.5,6.2-1.4c1.7-0.5,3.4-1,5-1.4c1.6-0.5,3.2-1,4.7-1.4c5.9-2,11.1-4,15.8-6.2c4.9-2.2,9.5-4.8,13.7-7.6
			c2-1.3,4.7-3.5,8.1-6.6c1.1-1.1,2.2-2.2,3.3-3.3c1.1-1.1,2.3-2.3,3.5-3.5c0.7-0.7,1.7-1.7,2.8-2.9c1.2-1.2,2.6-2.6,4.3-4.3
			c4-4.3,6.5-6.8,7.6-7.4c2.1-1.3,3.4-2.2,3.9-2.7c0.5-0.5,1.7-2,3.6-4.4c1.9-2.4,3.1-4.8,3.5-7c0.1-1.5-0.8-2.2-2.7-2.2
			c-1.6,0.2-3.5,0.5-5.8,0.7c-2.3,0.2-4.8,0.4-7.4,0.5c-2.6,0.1-5.1,0.2-7.6,0.3c-2.5,0.1-4.6,0.1-6.5,0.1c-2,0-3.4-0.1-4.3-0.2
			c-0.9-0.1-1.7-0.4-2.6-0.9c0.1-0.7,0.9-1.6,2.4-2.7c0,0,0,0,0.1,0c0,0,0,0,0,0l3.6-2.8c4.1-3,7.8-5.5,10.9-7.3
			c1.7-1,3.8-2.2,6.2-3.5c2.5-1.3,4.6-2.4,6.4-3.3c2-1.2,3.7-2.4,5.1-3.7c0.4-0.4,0.7-0.7,1-1c0.3-0.3,0.6-0.6,0.9-0.9
			c1.4-1.4,2.4-2.5,3-3.3c5.4-6.1,10.1-13.6,14.1-22.5l6.9-16C271.5,50.3,272.1,48.2,271.5,48.2z M172.4,158.9
			c-3.2,2.2-6.4,3.6-9.6,4.2c-3.2,0.7-5.7,1-7.5,0.9c1.6-2.6,3.1-5,4.4-7.1c1.3-2.1,3.2-4.9,5.7-8.5c2.5-3.6,5.4-5.5,8.7-5.6
			c2,0,3.9,0.5,5.9,1.4c1.9,0.9,3,2.1,3.2,3.5c0,0.9-1,2.5-3,4.7C178.2,154.6,175.6,156.8,172.4,158.9z"/>
		<path class="st0" d="M284.6,97c-0.6-0.3-1.3,0.2-2.2,1.6c-1,2.1-2.1,4.6-3.3,7.3c-1.2,2.8-2.3,5.7-3.5,8.7c-1.1,3-2.1,6.2-2.9,9.4
			c-0.8,3.2-1.4,6.3-1.8,9.2c-0.6,5.1-0.8,12.5-0.6,22.2c0.2,9.7,0.1,17.1-0.1,22.4c-0.3,5.3-0.9,10.8-2,16.4
			c-1.1,5.6-1.6,8.6-1.6,8.8c-0.1,0.8,0.1,1.3,0.6,1.6c0.5,0.3,1.2,0,2.2-1c0.8-1,1.9-2.5,3.2-4.6c1.3-2.1,3-6.4,5.3-12.7
			c2.2-6.4,3.7-13.7,4.4-22c0.4-3.8,0.7-8.5,0.8-14.1c0.1-5.5,0.3-11.8,0.5-18.8c0-1.1,0-2.6,0.1-4.5c0.1-1.9,0.1-4,0.2-6.3
			c0.1-2.3,0.2-4.6,0.3-7c0.1-2.4,0.3-4.6,0.4-6.7c0.1-2.1,0.3-3.9,0.4-5.4c0.1-1.5,0.3-2.5,0.4-2.9C285.4,97.8,285.2,97.3,284.6,97
			z"/>
	</g>
	<g>
		<g>
			<path class="st0" d="M162.4,107.2c0,0.7-0.3,1.3-0.9,2c-1.3,1.3-3.4,2.4-6.5,3.2c-2.7,0.7-5.3,1.1-8,1.1c-3.1,0-5.6-0.2-7.7-0.7
				c-3.4-0.8-5.1-2.2-5.1-4.1c0-2.1,2-3.5,6-4.4c2.3-0.5,4.9-0.8,7.7-0.8c1.7,0,3.1,0.2,4.2,0.6c1.7,0.6,2.5,1.6,2.5,3.1
				c0,2-1,5.2-3.1,9.5c-0.4,0.7-0.7,1.1-0.9,1.1c-0.1,0-0.1-0.1-0.1-0.2c0-0.3,0.1-0.7,0.3-1.2c1.5-4.4,2.3-7.5,2.3-9.2
				c0-1.5-1.7-2.2-5.2-2.2c-2.2,0-4.5,0.2-6.8,0.6c-3.6,0.7-5.4,1.7-5.4,3c0,1.1,1.3,1.9,3.8,2.6c2.1,0.5,4.6,0.8,7.5,0.8
				c2.6,0,5.2-0.4,7.9-1.1c2.9-0.8,4.8-1.8,5.7-2.9c0.1-0.1,0.1-0.2,0.1-0.3c0-0.1-0.1-0.2-0.4-0.3c-1-0.1-1.7-0.2-2.1-0.3
				c-0.8-0.2-1.3-0.6-1.3-1c0-0.2,0.1-0.3,0.2-0.5c0.2-0.4,0.5-0.5,0.9-0.3c0.1,0,0.2,0.2,0.4,0.3c0.1,0.1,0.3,0.2,0.7,0.2
				c1.2,0.2,1.9,0.3,2.1,0.3C162.1,106.2,162.4,106.6,162.4,107.2z M159.3,116.9c-0.7,0.3-1.5,0.4-2.5,0.4c-0.9,0-1.3-0.2-1.3-0.6
				c0-0.3,0.4-0.5,1.1-0.6c0.5-0.1,1.2-0.3,2.1-0.7c0.1,0,0.2-0.1,0.3-0.1c0.5,0,0.7,0.3,0.7,0.8
				C159.7,116.5,159.6,116.7,159.3,116.9z M163.5,106.6c-1.9,0.2-3.9,0.2-5.8,0c-0.3,0-0.5-0.2-0.5-0.7c0-0.5,0.2-0.7,0.5-0.7
				c2.2,0.2,4.2,0.2,6,0c0.2,0,0.2,0.2,0.2,0.7C164,106.3,163.9,106.6,163.5,106.6z"/>
			<path class="st0" d="M172.6,102.5c0,0.6-0.3,1.1-0.9,1.4c-0.8,0.6-2.1,1.1-3.9,1.7c-1.8,0.6-3.2,0.8-4.3,0.8
				c-0.5,0-0.7-0.2-0.7-0.7c0-0.5,0.2-0.7,0.7-0.7c0.6,0,1.5-0.1,2.6-0.4c1.3-0.3,2.3-0.7,3-1.1c0-0.1,0-0.3,0-0.4
				c0-0.4,0.1-0.9,0.4-1.4c0.2-0.3,0.4-0.4,0.8-0.5h0.1c0.1,0,0.3,0,0.4,0C172,101.4,172.6,101.8,172.6,102.5L172.6,102.5z"/>
			<path class="st0" d="M179,106.5c0,1.6-1.3,2.8-3.8,3.7c-1.6,0.5-3.1,0.8-4.6,0.8c-0.4,0-0.8,0-1.1-0.1c-0.3-0.1-0.5-0.2-0.5-0.3
				c0-0.2,0.3-0.4,0.8-0.5c1.9-0.4,3.3-0.7,4-1c2.4-0.9,3.6-1.6,3.6-2.3c0-0.2-0.1-0.3-0.3-0.3c-1.3,0-1.9-0.3-1.9-1
				c0-0.5,0.2-0.9,0.5-1.3c0.4-0.4,0.8-0.6,1.3-0.6c0.6,0,1.1,0.4,1.5,1.3C178.9,105.6,179,106.1,179,106.5z M179.6,106.5h-0.8
				c-0.5,0-0.7-0.2-0.7-0.7c0-0.5,0.2-0.7,0.7-0.7h0.8c0.5,0,0.7,0.2,0.7,0.7C180.3,106.3,180,106.5,179.6,106.5z"/>
			<path class="st0" d="M185.1,106.6c-1.1,0-1.8-0.4-2.3-1.1c-1,0.7-2.1,1.1-3.2,1.1c-0.5,0-0.7-0.2-0.7-0.7c0-0.5,0.2-0.7,0.7-0.7
				c1.1,0,2.2-0.5,3.2-1.6c0.2-0.2,0.4-0.3,0.7-0.3c0.4,0,0.7,0.2,0.7,0.7c0,0.1,0,0.2,0,0.3c0,0.1,0,0.2,0,0.3
				c0,0.5,0.4,0.7,1.1,0.7c0.5,0,0.7,0.2,0.7,0.7C185.8,106.3,185.6,106.6,185.1,106.6z M184.3,110.6c-0.7,0.3-1.5,0.4-2.5,0.4
				c-0.9,0-1.3-0.2-1.3-0.6c0-0.3,0.4-0.5,1.1-0.6c0.5-0.1,1.2-0.3,2.1-0.7c0.1,0,0.2-0.1,0.3-0.1c0.5,0,0.7,0.3,0.7,0.8
				C184.8,110.2,184.6,110.4,184.3,110.6z"/>
			<path class="st0" d="M188.5,103.3c0,0.2,0,0.4,0,0.6c0,1-0.5,1.8-1.6,2.2c-1,0.4-1.9,0.6-2.6,0.6c-0.5,0-0.7-0.2-0.7-0.7
				c0-0.5,0.2-0.7,0.7-0.7c0.6,0,1.2-0.1,1.9-0.4c0.4-0.2,0.6-0.3,0.7-0.5c0.1-0.1,0.1-0.3,0.1-0.6c0-0.1,0-0.2,0-0.3
				c-0.2-1.6-0.4-4-0.6-7.3v-0.1c0-0.3,0.1-0.5,0.3-0.7c0.2-0.2,0.4-0.3,0.7-0.3c0.3,0,0.5,0.2,0.5,0.5
				C188.1,99.6,188.4,102.2,188.5,103.3z"/>
			<path class="st0" d="M191.7,103.5c0,0.2,0,0.4,0,0.5c0,1.1-0.2,1.7-0.5,1.7c-0.3,0-0.5-0.4-0.7-1.3c-0.1-0.5-0.2-1.5-0.4-3.2
				c-0.1-1.1-0.3-2.4-0.4-4.1V97c0-0.4,0.1-0.7,0.3-0.9c0.2-0.2,0.4-0.4,0.6-0.4c0.3,0,0.4,0.2,0.5,0.6
				C191.2,97.9,191.4,100.3,191.7,103.5z"/>
		</g>
	</g>
	<g>
		<g>
			<path class="st0" d="M133.4,203.7c0.2,0.4,0.6,0.6,0.9,0.6h0.1v0.1h-4.1v-0.1h0.1c0.3,0,0.6-0.2,0.4-0.7l-0.4-1h-2.3l-0.4,1
				c-0.2,0.4,0.1,0.7,0.4,0.7h0.1v0.1h-2.4v-0.1h0.1c0.3,0,0.7-0.2,0.9-0.6l2.5-5.5c0.1-0.3,0.6-1.2,0.6-1.6h0.1L133.4,203.7z
				 M130.1,202.1l-0.9-2.2l-0.9,2.2H130.1z"/>
			<path class="st0" d="M141,201.9l-0.4,2.5h-6.3l0-0.1h0.1c0.4,0,0.7-0.3,0.7-0.7v-6c0-0.4-0.3-0.7-0.7-0.7h-0.1l0-0.1h3.9l0,0.1
				H138c-0.4,0-0.7,0.3-0.7,0.7v6.2h1.3c1,0,1.9-0.7,2.2-2H141z"/>
			<path class="st0" d="M150.3,204.4h-3.9l0-0.1h0.1c0.4,0,0.7-0.3,0.7-0.7v-2.7h-2.9v2.7c0,0.4,0.3,0.7,0.7,0.7h0.1l0,0.1h-3.9
				l0-0.1h0.1c0.4,0,0.7-0.3,0.7-0.7v-6c0-0.4-0.3-0.7-0.7-0.7h-0.1l0-0.1h3.9l0,0.1h-0.1c-0.4,0-0.7,0.3-0.7,0.7v2.7h2.9v-2.7
				c0-0.4-0.3-0.7-0.7-0.7h-0.1l0-0.1h3.9l0,0.1h-0.1c-0.4,0-0.7,0.3-0.7,0.7v6c0,0.4,0.3,0.7,0.7,0.7h0.1L150.3,204.4z"/>
			<path class="st0" d="M157.8,203.7c0.2,0.4,0.6,0.6,0.9,0.6h0.1v0.1h-4.1v-0.1h0.1c0.3,0,0.6-0.2,0.4-0.7l-0.4-1h-2.3l-0.4,1
				c-0.2,0.4,0.1,0.7,0.4,0.7h0.1v0.1h-2.4v-0.1h0.1c0.3,0,0.7-0.2,0.9-0.6l2.5-5.5c0.1-0.3,0.6-1.2,0.6-1.6h0.1L157.8,203.7z
				 M154.5,202.1l-0.9-2.2l-0.9,2.2H154.5z"/>
			<path class="st0" d="M163.6,200.1c0.8,0.4,1.3,1.1,1.2,2.1c-0.1,1.5-1.4,2.4-3.4,2.4c-1.3,0-2.2-0.3-2.6-0.7
				c-0.2-0.5,0-1.6,0.3-2h0.1c-0.1,1.1,0.8,2.2,2.4,2.2c1,0,1.5-0.5,1.5-1.1c0-0.4-0.3-0.8-1.1-1.2l-1.8-0.8c-1-0.5-1.5-1.3-1.3-2.3
				c0.2-1.3,1.1-1.9,2.5-1.9c0.4,0,1.2,0,1.8,0.1h0.8l-0.2,1.8h-0.1c0-0.8-0.7-1.3-1.7-1.3c-0.9,0-1.4,0.4-1.5,0.9
				c0,0.5,0.4,0.8,1,1L163.6,200.1z"/>
			<path class="st0" d="M170.6,200.1c0.8,0.4,1.3,1.1,1.2,2.1c-0.1,1.5-1.4,2.4-3.4,2.4c-1.3,0-2.2-0.3-2.6-0.7
				c-0.2-0.5,0-1.6,0.3-2h0.1c-0.1,1.1,0.8,2.2,2.4,2.2c1,0,1.5-0.5,1.5-1.1c0-0.4-0.3-0.8-1.1-1.2l-1.8-0.8c-1-0.5-1.5-1.3-1.3-2.3
				c0.2-1.3,1.1-1.9,2.5-1.9c0.4,0,1.2,0,1.8,0.1h0.8l-0.2,1.8h-0.1c0-0.8-0.7-1.3-1.7-1.3c-0.9,0-1.4,0.4-1.5,0.9
				c0,0.5,0.4,0.8,1,1L170.6,200.1z"/>
			<path class="st0" d="M179.5,203.7c0.2,0.4,0.6,0.6,0.9,0.6h0.1v0.1h-4.1v-0.1h0.1c0.3,0,0.6-0.2,0.4-0.7l-0.4-1h-2.3l-0.4,1
				c-0.2,0.4,0.1,0.7,0.4,0.7h0.1v0.1h-2.4v-0.1h0.1c0.3,0,0.7-0.2,0.9-0.6l2.5-5.5c0.1-0.3,0.6-1.2,0.6-1.6h0.1L179.5,203.7z
				 M176.3,202.1l-0.9-2.2l-0.9,2.2H176.3z"/>
			<path class="st0" d="M184.5,196.8c2.7,0,4.3,1.4,4.3,3.8c0,2.4-1.6,3.8-4.3,3.8h-4.1l0-0.1h0.1c0.4,0,0.7-0.3,0.7-0.7v-6.1
				c0-0.3-0.3-0.6-0.7-0.6h-0.1l0-0.1L184.5,196.8z M183.5,203.9h0.8c1.4,0,2.2-1.2,2.2-3.2c0-2-0.8-3.2-2.2-3.2h-0.8V203.9z"/>
			<path class="st0" d="M199,201.9l-0.4,2.5h-6.3l0-0.1h0.1c0.4,0,0.7-0.3,0.7-0.7v-6c0-0.4-0.3-0.7-0.7-0.7h-0.1l0-0.1h4.8
				c0.5,0,1.1-0.1,1.3-0.2v2.2l-0.1,0v-0.1c0-0.9-0.5-1.4-1.4-1.4h-1.6v3h1.2c0.7,0,1.2-0.5,1.2-1.2v-0.1l0.1,0v3l-0.1,0v-0.1
				c0-0.7-0.5-1.2-1.2-1.2h-1.2v2.9h1.3c1,0,1.9-0.7,2.2-2H199z"/>
			<path class="st0" d="M206.2,201.9l-0.4,2.5h-6.3l0-0.1h0.1c0.4,0,0.7-0.3,0.7-0.7v-6c0-0.4-0.3-0.7-0.7-0.7h-0.1l0-0.1h3.9l0,0.1
				h-0.1c-0.4,0-0.7,0.3-0.7,0.7v6.2h1.3c1,0,1.9-0.7,2.2-2H206.2z"/>
			<path class="st0" d="M217.3,196.8v0.1h-0.2c-0.5,0-0.9,0.3-1.1,0.6l-2.1,3.3v2.7c0,0.4,0.3,0.7,0.7,0.7h0.1l0,0.1h-3.9l0-0.1h0.1
				c0.4,0,0.7-0.3,0.7-0.7v-2.7l-2.1-3.4c-0.2-0.3-0.6-0.6-1.1-0.6h-0.2v-0.1h4.2v0.1h-0.1c-0.3,0-0.5,0.4-0.4,0.7l1.5,2.7l1.5-2.7
				c0.2-0.3-0.1-0.7-0.4-0.7h-0.1v-0.1H217.3z"/>
			<path class="st0" d="M222.8,203.7c0.2,0.4,0.6,0.6,0.9,0.6h0.1v0.1h-4.1v-0.1h0.1c0.3,0,0.6-0.2,0.4-0.7l-0.4-1h-2.3l-0.4,1
				c-0.2,0.4,0.1,0.7,0.4,0.7h0.1v0.1h-2.4v-0.1h0.1c0.3,0,0.7-0.2,0.9-0.6l2.5-5.5c0.1-0.3,0.6-1.2,0.6-1.6h0.1L222.8,203.7z
				 M219.6,202.1l-0.9-2.2l-0.9,2.2H219.6z"/>
			<path class="st0" d="M232.4,200.6c0,2.5-1.7,3.9-4.5,3.9c-2.8,0-4.5-1.5-4.5-3.9c0-2.5,1.7-3.9,4.5-3.9
				C230.7,196.7,232.4,198.1,232.4,200.6z M230,200.6c0-2.1-0.8-3.4-2.1-3.4c-1.3,0-2.1,1.3-2.1,3.4c0,2.1,0.8,3.4,2.1,3.4
				C229.2,204,230,202.8,230,200.6z"/>
			<path class="st0" d="M241.6,196.8v0.1h-0.2c-0.3,0-0.6,0.2-0.6,0.5v4.2c0,1.8-1.2,2.9-3.2,2.9c-2.7,0-3.9-1.1-3.9-2.9v-4.2
				c0-0.3-0.3-0.5-0.6-0.5H233v-0.1h3.7v0.1h-0.2c-0.3,0-0.6,0.2-0.6,0.5v4.1c0,1.5,0.7,2.4,2,2.4c1.2,0,2-0.8,2-2.3v-4.3
				c0-0.3-0.3-0.5-0.6-0.5h-0.2v-0.1H241.6z"/>
			<path class="st0" d="M251.4,203.6c0.1,0.4,0.4,0.7,0.8,0.7h0.2v0.1h-3.8v-0.1h0.2c0.2,0,0.4-0.2,0.4-0.5l-0.4-3.2l-1.8,2.7
				c0,0-0.5,0.7-0.4,1.3h-0.1l-2.8-3.9l-0.4,3.1c0,0.2,0.2,0.5,0.4,0.5h0.2v0.1h-2.4v-0.1h0.2c0.4,0,0.7-0.3,0.8-0.7l1-6.9h0.1
				l3.6,5l3.3-5h0.1L251.4,203.6z"/>
			<path class="st0" d="M256.3,204.4h-3.9l0-0.1h0.1c0.4,0,0.7-0.3,0.7-0.7v-6c0-0.4-0.3-0.7-0.7-0.7h-0.1l0-0.1h3.9l0,0.1h-0.1
				c-0.4,0-0.7,0.3-0.7,0.7v6c0,0.4,0.3,0.7,0.7,0.7h0.1L256.3,204.4z"/>
		</g>
	</g>
	<g>
		<g>
			<path class="st0" d="M159.7,74.4c-3.2-0.6-6.4-1.1-9.7-0.8c-7.1,0.5-13.4,3-18.9,7.5c-3.1,2.5-5.5,5.5-7.5,8.9
				c-0.2,0.4-0.4,0.8-0.6,1.3c0.9,0.3,1.7,0.5,2.5,0.8c1.2,0.3,2.4,0.7,3.6,0.9c1,0.2,1,0.2,1.4-0.7c1-2.4,2.2-4.6,3.7-6.7
				c1.5-2.2,3.3-4.2,5.4-5.9c1.1-0.9,2.1-1.7,3.2-2.6c0.2-0.2,0.5-0.3,0.8-0.5c-12.5,12.8-15.6,27.9-11.4,45.1
				c-1.2-2.3-2.2-4.5-2.9-6.8c-0.3-1.2-0.6-2.4-0.9-3.5c-0.1-0.6-0.4-0.9-1-1c-1.3-0.3-2.6-0.7-3.9-1.1c-2.8-0.8-5.4-2-8-3.3
				c-0.3-0.2-0.7-0.3-1-0.4c-1.3-0.5-1.4-0.6-1.2-2.1c0.3-2,0.6-4,1-6c0.2-0.9,0.5-1.8,0.8-2.8c0.1-0.3,0.3-0.5,0.4-0.8
				c1.7,0.6,3.4,1.3,5.2,1.9c-0.3,1.2-0.7,2.4-0.8,3.6c-0.3,1.9-0.5,3.7-0.7,5.6c-0.1,0.5,0.2,0.8,0.7,0.9c2.4,0.6,4.8,1.3,7.1,2
				c0.6,0.2,0.8,0,0.8-0.7c0-1,0-2.1,0-3.1c0-2.3,0.4-4.5,1-6.8c0-0.1,0.1-0.2,0.1-0.3c0.2-0.8,0.1-0.9-0.7-1.1
				c-1.8-0.4-3.5-0.8-5.2-1.3c-2.2-0.7-4.5-1.5-6.6-2.8c0.2-0.4,0.3-0.7,0.5-1.1c2-3.6,4.3-6.9,7.3-9.7c2.7-2.5,5.7-4.6,9.1-6.1
				c4.4-2,9-3,13.8-3c3.9,0,7.7,0.5,11.4,1.8C159,73.9,159.4,74.2,159.7,74.4L159.7,74.4z"/>
			<path class="st0" d="M113.4,107.3c1.3,0.6,2.4,1.1,3.5,1.6c0.6,0.3,1.3,0.5,2,0.8c0.5,0.2,0.7,0.5,0.8,1.1
				c0.4,3.2,1.4,6.2,2.7,9.2c0.3,0.7,0.8,1.2,1.5,1.3c2.7,0.6,5.4,1.3,8.2,1.8c1.2,0.3,2.5,0.4,3.7,0.5c1.1,0.1,2.3,0.3,3.4,0.3
				c2.3,0.1,4.6,0.2,7,0.2c2.5,0,5-0.3,7.5-0.4c0.2,0,0.4-0.1,0.7,0c-1.4,0.3-2.8,0.7-4.2,1c-2.5,0.5-5,0.8-7.6,1
				c-2.9,0.2-5.8,0.1-8.7-0.1c-3.5-0.3-6.9-0.9-10.2-2.1c-1.9-0.7-3.7-1.5-5.5-2.2c-0.5-0.2-1-0.5-1.4-0.9c-0.3-0.2-0.5-0.5-0.7-0.8
				c-1.5-3.5-2.2-7.2-2.6-10.9C113.4,108.2,113.4,107.8,113.4,107.3z"/>
			<path class="st0" d="M160.6,137.6c-16.5,6.9-34.5-0.5-42.2-13.9c0.3,0,0.5,0,0.7,0.1c2,0.9,4.1,1.3,6.2,1.9
				c0.4,0.1,0.8,0.3,1.1,0.6c0.5,0.5,0.9,1,1.3,1.5c4.5,5,10.1,8.2,16.5,9.9c3.4,0.9,6.8,1,10.2,0.8
				C156.6,138.4,158.6,137.9,160.6,137.6z"/>
			<path class="st1" d="M160.9,108.2c-0.3,0.1-0.7,0.3-1,0.4c-3.6,1.4-7.2,2.3-11,2.8c-4.1,0.5-8.1,0.8-12.2,0.3
				c-1.1-0.1-2.2-0.2-3.3-0.3c-0.8-0.1-0.9-0.2-0.9-0.9c0-0.5,0-0.9,0-1.5c4.8,0.4,9.5,0.9,14.3,0.7
				C151.5,109.4,156.2,109,160.9,108.2z"/>
			<path class="st0" d="M134.1,96.7c0.2-0.8,0.3-1.3,0.5-1.9c0.2-0.7,0.4-0.8,1.1-0.7c3.5,0.6,7,0.7,10.6,0.8c2.5,0,4.9-0.1,7.4-0.1
				C147.3,96.8,140.8,97.1,134.1,96.7z"/>
			<path class="st0" d="M159.7,74.4c0.3,0,0.5,0,0.8,0c0,0,0,0.1,0,0.1C160.3,74.5,160,74.4,159.7,74.4
				C159.7,74.4,159.7,74.4,159.7,74.4z"/>
		</g>
	</g>
</g>
</svg>
